<svg xmlns="http://www.w3.org/2000/svg" xmlns:xlink="http://www.w3.org/1999/xlink" viewBox="0 0 480 256">
  <defs>
    <style>
      .cls-1, .cls-13, .cls-8 {
        fill: #fff;
      }

      .cls-2 {
        fill: url(#linear-gradient);
      }

      .cls-3 {
        fill: url(#linear-gradient-2);
      }

      .cls-4 {
        fill: url(#linear-gradient-3);
      }

      .cls-5, .cls-6, .cls-7 {
        fill: none;
      }

      .cls-6, .cls-8 {
        stroke: #2467f4;
      }

      .cls-13, .cls-6, .cls-7 {
        stroke-miterlimit: 10;
      }

      .cls-6, .cls-7, .cls-8 {
        stroke-width: 2px;
      }

      .cls-7 {
        stroke: #979797;
        stroke-dasharray: 4 4;
      }

      .cls-8 {
        stroke-miterlimit: 10;
      }

      .cls-9 {
        fill: #fd783d;
      }

      .cls-10 {
        fill: #fda578;
      }

      .cls-11 {
        fill: #1cb3a0;
      }

      .cls-12 {
        fill: #4ad5c3;
      }

      .cls-13 {
        stroke: #000;
      }

      .cls-14 {
        clip-path: url(#clip-path);
      }

      .cls-15 {
        fill: #243238;
      }

      .cls-16 {
        fill: #3b4b54;
      }

      .cls-17 {
        fill: #0883a5;
      }

      .cls-18 {
        fill: #00aed1;
      }

      .cls-19 {
        fill: #027c68;
      }

      .cls-20 {
        fill: #00b199;
      }

      .cls-21 {
        fill: #fbfbfb;
      }

      .cls-22 {
        fill: #f5c144;
      }

      .cls-23 {
        clip-path: url(#clip-path-8);
      }

      .cls-24, .cls-25 {
        isolation: isolate;
      }

      .cls-25, .cls-32, .cls-34 {
        font-size: 14px;
        font-family: IBMPlexSans-Bold, IBM Plex Sans;
        font-weight: 700;
      }

      .cls-26 {
        letter-spacing: -0.005em;
      }

      .cls-27 {
        letter-spacing: -0.007em;
      }

      .cls-28 {
        letter-spacing: -0.045em;
      }

      .cls-29 {
        letter-spacing: -0.014em;
      }

      .cls-30 {
        letter-spacing: 0em;
      }

      .cls-31 {
        letter-spacing: -0.027em;
      }

      .cls-32 {
        fill: #161616;
        letter-spacing: 0.011em;
      }

      .cls-33 {
        letter-spacing: 0.011em;
      }

      .cls-35 {
        letter-spacing: -0.015em;
      }

      .cls-36 {
        mask: url(#mask);
      }

      .cls-37 {
        fill: url(#linear-gradient-4);
      }

      .cls-38 {
        fill: #032068;
      }
    </style>
    <linearGradient id="linear-gradient" x1="413.133" y1="188.394" x2="421.133" y2="188.394" gradientUnits="userSpaceOnUse">
      <stop offset="0.15"/>
      <stop offset="1" stop-opacity="0"/>
    </linearGradient>
    <linearGradient id="linear-gradient-2" x1="-1317.681" y1="-9044.057" x2="-1308.681" y2="-9044.057" gradientTransform="translate(1747.314 9232.951)" gradientUnits="userSpaceOnUse">
      <stop offset="0.1"/>
      <stop offset="0.8" stop-opacity="0"/>
    </linearGradient>
    <linearGradient id="linear-gradient-3" x1="413.133" y1="176.394" x2="424.133" y2="176.394" xlink:href="#linear-gradient"/>
    <clipPath id="clip-path">
      <rect class="cls-5" x="27.625" y="163.394" width="40" height="40"/>
    </clipPath>
    <clipPath id="clip-path-8">
      <rect id="SVGID" class="cls-5" x="153.763" y="163.394" width="40" height="40"/>
    </clipPath>
    <mask id="mask" x="413.133" y="167.394" width="32" height="32" maskUnits="userSpaceOnUse">
      <path class="cls-1" d="M433.133,185.394v8h-10v-10h4v-2H422.21a1.077,1.077,0,0,0-1.077,1.077v4.923h-7v2h7v4.923a1.077,1.077,0,0,0,1.077,1.077h11.846a1.077,1.077,0,0,0,1.077-1.077v-8.923Z"/>
      <rect class="cls-1" x="414.133" y="175.394" width="13" height="2"/>
      <rect class="cls-2" x="413.133" y="186.394" width="8" height="4"/>
      <rect class="cls-3" x="429.633" y="186.894" width="9" height="4" transform="translate(623.027 -245.239) rotate(90)"/>
      <rect class="cls-4" x="413.133" y="174.394" width="11" height="4"/>
    </mask>
    <linearGradient id="linear-gradient-4" x1="413.133" y1="199.394" x2="445.133" y2="167.394" gradientUnits="userSpaceOnUse">
      <stop offset="0.1" stop-color="#54b9b8"/>
      <stop offset="0.9" stop-color="#2467f4"/>
    </linearGradient>
  </defs>
  <g id="Text">
    <line class="cls-6" x1="395" y1="184.32" x2="335" y2="184.32"/>
    <line class="cls-6" x1="267" y1="184.32" x2="206" y2="184.32"/>
    <line class="cls-6" x1="144" y1="184.32" x2="81" y2="184.32"/>
    <polyline class="cls-6" points="252.217 200.001 268.217 184.001 252.217 168.001"/>
    <polyline class="cls-6" points="96.217 168.301 80.217 184.301 96.217 200.301"/>
    <polyline class="cls-6" points="380.217 200.001 396.217 184.001 380.217 168.001"/>
    <line id="Dashed_lin1" data-name="Dashed lin1" class="cls-7" x1="175" y1="149.32" x2="175" y2="113.32"/>
    <g id="CI_Pipeline" data-name="CI Pipeline">
      <g>
        <circle class="cls-8" cx="301.069" cy="183.394" r="32"/>
        <g id="CI_CD_icon">
          <g id="e18fe981-7760-4f0f-92d6-295e583f5df5">
            <g>
              <path class="cls-9" d="M314.115,185.839c-1.549,6.289-6.759,10.9-13.377,10.9a12.335,12.335,0,0,1-10.419-5.17l7.181-7.406.845.838-.845-.838h0l1.126,1.257,1.69-5.869-5.773,1.677,1.126,1.118L293.98,184.3l-4.928,5.031a12.467,12.467,0,0,1-1.69-5.45l-2.112-3.074a10.467,10.467,0,0,0-.141,2.236,16.056,16.056,0,0,0,31.259,5.449Z"/>
              <polyline class="cls-10" points="288.77 189.333 295.529 182.346 294.543 181.228 300.316 179.551 290.319 189.473"/>
            </g>
            <g>
              <path class="cls-10" d="M300.575,199.114a16.251,16.251,0,0,0,15.207-10.9l-1.127-1.258a14.582,14.582,0,0,1-28.724-3.912v-.7l-.845-1.537a10.467,10.467,0,0,0-.141,2.236,15.657,15.657,0,0,0,15.249,16.063Q300.385,199.114,300.575,199.114Z"/>
              <line class="cls-5" x1="288.77" y1="189.473" x2="290.319" y2="190.032"/>
            </g>
          </g>
          <g id="b4a44eff-a6ab-4c1f-a314-3899682236f1">
            <g>
              <path class="cls-11" d="M287.643,180.669c1.549-6.288,6.759-10.9,13.377-10.9a12.337,12.337,0,0,1,10.42,5.17l-7.182,7.406-.563-.838.844.838h0l-1.267-1.258-1.689,5.869,5.773-1.677-1.127-1.117,1.971-1.957,4.929-5.03a16.445,16.445,0,0,1,1.549,5.449l2.112,3.075a9.168,9.168,0,0,0,.14-1.957,16.254,16.254,0,0,0-16.052-16.349,16.026,16.026,0,0,0-14.925,10.9Z"/>
              <polyline class="cls-12" points="311.581 174.94 304.259 182.346 303.273 181.088 301.583 186.957 311.299 176.896"/>
            </g>
            <g>
              <path class="cls-12" d="M301.287,167.394a16.249,16.249,0,0,0-15.207,10.9l1.126,1.257a14.583,14.583,0,0,1,28.725,3.913v.7l1.126,1.537a9.169,9.169,0,0,0,.141-1.957C317.057,174.521,310.017,167.394,301.287,167.394Z"/>
              <line class="cls-5" x1="312.989" y1="176.896" x2="311.581" y2="176.477"/>
            </g>
          </g>
        </g>
      </g>
    </g>
    <g id="Issue_Tracker" data-name="Issue Tracker">
      <circle class="cls-13" cx="47.625" cy="183.394" r="32"/>
      <g id="Inv_icon">
        <g class="cls-14">
          <g>
            <g class="cls-14">
              <path class="cls-15" d="M39.817,185.321a8.225,8.225,0,0,1-.172-.992,1.138,1.138,0,0,1-.02-.183v-.02a8.414,8.414,0,0,1,.182-2.6c0-.01.01-.01.01-.03.02-.051.02-.111.041-.162a.3.3,0,0,0,.02-.091c.01-.031.01-.061.02-.091.02-.051.031-.112.051-.162,0-.011.01-.011.01-.031a8.009,8.009,0,0,1,1.255-2.492.123.123,0,0,1,.031-.04c.05-.071.1-.132.151-.2a.8.8,0,0,1,.081-.1c.021-.031.051-.051.071-.081a7.918,7.918,0,0,1,.689-.74,11.362,11.362,0,0,1,.192-10.708,17.865,17.865,0,0,0-3.219,1.429.032.032,0,0,1-.021.01c-.091.05-.182.111-.273.162-.02.01-.05.03-.071.04s-.01.011-.01.011c-.02.01-.05.02-.061.04a.349.349,0,0,0-.081.051c-.06.04-.131.081-.192.121s-.1.071-.152.1a1.739,1.739,0,0,0-.182.121c-.051.041-.1.071-.152.112s-.111.081-.172.121-.1.071-.152.112a1.959,1.959,0,0,0-.172.131c-.051.041-.1.071-.152.112a1.12,1.12,0,0,0-.172.142c-.04.04-.091.07-.142.111l-.3.243c-.051.041-.091.081-.132.112s-.111.1-.172.151a.937.937,0,0,0-.142.132c-.05.041-.1.091-.152.142s-.1.091-.141.142-.1.091-.152.142-.1.091-.152.141a1.729,1.729,0,0,1-.142.142,1.585,1.585,0,0,1-.142.142,1.894,1.894,0,0,0-.141.142,1.9,1.9,0,0,1-.142.142,1.673,1.673,0,0,0-.132.142c-.05.05-.091.1-.141.152s-.1.121-.152.172c-.081.091-.162.182-.233.273a.733.733,0,0,0-.111.142c-.051.051-.092.112-.142.172a1.25,1.25,0,0,0-.111.142,1.106,1.106,0,0,0-.132.172,1.71,1.71,0,0,0-.111.142c-.041.061-.081.112-.132.183a1.54,1.54,0,0,0-.111.141.444.444,0,0,0-.061.092c-.041.05-.071.1-.112.151s-.07.1-.111.152a1.639,1.639,0,0,1-.152.213c-.03.041-.05.081-.081.122-.01.01-.02.04-.03.05-.041.071-.091.142-.142.213-.02.041-.05.081-.071.122-.081.121-.152.253-.222.375s-.142.253-.2.374c-.02.041-.051.081-.071.122-.05.081-.091.172-.142.253a.934.934,0,0,1-.081.142,1.93,1.93,0,0,0-.111.243.536.536,0,0,1-.081.152c-.04.081-.071.152-.111.233-.02.051-.051.1-.071.152-.041.081-.071.162-.111.233a1.288,1.288,0,0,0-.061.142c-.041.091-.071.182-.112.273-.01.041-.03.081-.04.122l-.152.395a.037.037,0,0,0-.01.03c-.051.122-.081.244-.122.365-.02.051-.03.091-.05.132-.03.081-.051.172-.081.263-.02.051-.03.112-.051.152l-.06.213a.056.056,0,0,0-.011.04c-.01.031-.02.061-.03.1s-.01.061-.02.091c-.02.081-.041.152-.061.233,0,.01-.01.02-.01.03a.369.369,0,0,0-.02.1l-.152.638v.01a11.471,11.471,0,0,0,9.192,5.47"/>
            </g>
            <g class="cls-14">
              <path class="cls-16" d="M45.735,191.264a8.706,8.706,0,0,1-.93-.34c-.05-.02-.109-.05-.169-.08a.035.035,0,0,1-.02-.01,8.045,8.045,0,0,1-2.139-1.44l-.02-.02c-.04-.04-.08-.07-.12-.11a.462.462,0,0,0-.07-.07l-.07-.07-.11-.11c-.01-.01-.02-.01-.02-.02a8.3,8.3,0,0,1-1.519-2.3.076.076,0,0,1-.02-.04c-.03-.08-.06-.15-.09-.23-.02-.04-.03-.07-.05-.11a.76.76,0,0,0-.04-.11c-.11-.32-.209-.64-.289-.96a11.238,11.238,0,0,1-9.074-5.45,16.655,16.655,0,0,0-.36,3.46v.6c0,.07.01.15.01.23,0,.06.01.12.01.18s.01.15.02.21a1.087,1.087,0,0,1,.01.18c.01.07.01.14.02.21a1.087,1.087,0,0,1,.01.18,1.646,1.646,0,0,1,.02.21c.01.06.01.12.02.18s.02.15.03.22c.01.05.01.11.02.17.02.12.04.25.06.37.01.05.02.11.03.17.02.08.02.14.04.22a1.286,1.286,0,0,0,.04.19c.02.07.02.13.04.2s.03.13.05.19.03.13.049.19.03.13.05.2.03.12.05.18a1.462,1.462,0,0,0,.05.2,1.209,1.209,0,0,0,.05.18c.01.07.04.13.05.2a1.209,1.209,0,0,1,.05.18c.02.07.04.13.06.2a1.293,1.293,0,0,0,.07.21c.04.12.08.23.11.34.02.05.04.11.06.17a1.192,1.192,0,0,0,.08.2.851.851,0,0,1,.06.17,1.192,1.192,0,0,0,.08.2c.02.05.05.11.07.16.03.07.05.14.08.2s.05.11.07.16c.01.03.03.07.04.1.02.05.05.11.08.17s.05.11.08.17a1.627,1.627,0,0,1,.11.23c.02.04.05.09.07.14.01.01.01.04.03.05a2.244,2.244,0,0,1,.109.22.826.826,0,0,0,.07.13c.07.13.14.25.21.38s.14.24.22.36a.444.444,0,0,0,.08.11l.15.24c.03.04.06.09.09.14.05.08.1.14.15.22.03.04.06.09.1.14.05.07.1.14.14.21a1.7,1.7,0,0,1,.1.14l.15.21c.029.04.059.08.1.13.06.08.11.15.17.22.03.04.05.07.08.11.08.11.18.21.26.32a.077.077,0,0,1,.02.03c.08.1.16.19.24.28.03.04.06.07.09.11.06.07.12.14.18.2l.11.11c.05.05.1.11.15.15l.03.03a13.712,13.712,0,0,1,.139.14l.17.17c.01.01.02.01.02.02.02.02.05.04.08.07.15.15.31.29.48.44h.01a11.265,11.265,0,0,0,9.284-5.13"/>
            </g>
            <g class="cls-14">
              <path class="cls-17" d="M53.557,188.964a7.7,7.7,0,0,1-.76.63c-.05.04-.1.07-.15.11a.031.031,0,0,1-.02.01,8.318,8.318,0,0,1-2.318,1.13c-.01,0-.02.01-.03.01-.05.01-.11.03-.16.04-.03.01-.06.01-.09.02s-.06.01-.09.02a.936.936,0,0,0-.16.04c-.01,0-.02.01-.03.01a8.234,8.234,0,0,1-2.748.16c-.01,0-.04,0-.05-.01l-.24-.03c-.04-.01-.08-.01-.12-.02a.425.425,0,0,0-.11-.02c-.33-.06-.649-.14-.969-.23a11.257,11.257,0,0,1-9.264,5.13,17.2,17.2,0,0,0,2.818,2.05l.02.02c.09.05.18.11.27.15a.251.251,0,0,1,.07.04c.01,0,.01.01.02.01.02.02.04.02.07.04s.05.03.08.04c.07.04.14.07.2.11a1.29,1.29,0,0,1,.16.09c.059.03.129.07.189.1s.11.05.17.08.13.06.19.09a1.3,1.3,0,0,1,.17.08,1.667,1.667,0,0,0,.2.08c.05.02.11.05.17.08a1.8,1.8,0,0,0,.21.08,1.111,1.111,0,0,1,.16.07c.109.04.239.09.349.14.05.02.11.04.16.06a1.8,1.8,0,0,1,.21.08l.18.06c.06.02.13.04.19.06s.13.04.19.06.12.04.19.06a1.32,1.32,0,0,0,.189.05c.06.01.12.04.18.05s.13.04.2.05a1.163,1.163,0,0,0,.18.04c.07.02.13.03.2.05s.12.03.18.04.13.03.2.05a1.742,1.742,0,0,1,.22.05c.109.02.239.05.349.07.06.01.11.02.18.03a1.552,1.552,0,0,1,.21.04,1.01,1.01,0,0,1,.17.03c.07.01.15.02.21.03s.11.01.17.02a1.646,1.646,0,0,0,.21.02.974.974,0,0,0,.169.02c.04,0,.08.01.11.01a1.087,1.087,0,0,0,.18.01c.06.01.12.01.19.02a2.175,2.175,0,0,0,.26.01c.05,0,.1.01.15.01h.06c.08,0,.17.01.25.01.04,0,.1.01.14.01.149,0,.289.01.429.01s.28,0,.42-.01a.66.66,0,0,0,.14-.01c.1,0,.19-.01.29-.01.05,0,.11-.01.16-.01a2.252,2.252,0,0,1,.259-.01c.05-.01.11-.01.17-.02.08-.01.17-.01.25-.02.05-.01.11-.01.17-.02l.24-.03c.05-.01.1-.01.14-.02.1-.02.21-.03.31-.04a.615.615,0,0,1,.13-.01c.139-.02.269-.04.409-.07.02,0,.02-.01.04-.01.12-.02.24-.05.37-.07l.14-.03a2.614,2.614,0,0,0,.27-.06.936.936,0,0,0,.16-.04c.07-.02.14-.03.209-.05.01,0,.03-.01.04-.01.03-.01.07-.01.1-.02l.09-.02.23-.06c.01,0,.02-.01.03-.01.03-.01.07-.02.1-.03.2-.06.41-.12.62-.19l.01-.01a11.193,11.193,0,0,0,.19-10.57"/>
            </g>
            <g class="cls-14">
              <path class="cls-18" d="M55.444,181.323a8.306,8.306,0,0,1,.171.987,1.1,1.1,0,0,1,.01.181v.02a8.08,8.08,0,0,1-.181,2.589c0,.01-.01.02-.01.03a1.068,1.068,0,0,1-.041.162.292.292,0,0,0-.02.09c-.01.031-.01.061-.02.091a.947.947,0,0,0-.04.161c0,.01-.01.01-.01.03a8.092,8.092,0,0,1-1.249,2.479c-.01.01-.02.03-.03.04-.05.07-.1.131-.151.2a.655.655,0,0,1-.08.1c-.021.03-.051.05-.071.081a7.933,7.933,0,0,1-.684.735,11.33,11.33,0,0,1-.192,10.648,18.578,18.578,0,0,0,3.2-1.42.031.031,0,0,1,.02-.01c.09-.051.181-.111.272-.162a.161.161,0,0,1,.07-.04.01.01,0,0,0,.01-.01c.02-.02.05-.02.061-.04a.938.938,0,0,0,.09-.051c.061-.04.131-.08.191-.121s.1-.07.151-.1l.182-.121c.05-.041.1-.071.151-.111s.11-.081.171-.121.1-.07.151-.111a1.9,1.9,0,0,0,.171-.131c.04-.04.1-.07.141-.11.06-.051.121-.091.181-.142a1.732,1.732,0,0,1,.141-.11l.3-.242a1.562,1.562,0,0,0,.131-.121c.05-.04.121-.1.171-.141a1.814,1.814,0,0,0,.141-.131c.05-.05.1-.091.151-.141a1.874,1.874,0,0,0,.141-.141c.04-.05.1-.091.151-.141s.1-.091.141-.141l.141-.141.151-.151a1.562,1.562,0,0,1,.141-.141.855.855,0,0,1,.141-.141c.04-.041.08-.091.131-.141s.09-.1.14-.151.1-.111.151-.172c.081-.09.162-.181.232-.272a.735.735,0,0,0,.111-.141,1.845,1.845,0,0,1,.141-.161,1.353,1.353,0,0,0,.11-.141,1.772,1.772,0,0,0,.131-.171,1.54,1.54,0,0,0,.111-.141c.04-.061.081-.111.131-.182.04-.05.07-.09.111-.141a.47.47,0,0,0,.06-.09c.04-.051.071-.1.111-.151s.07-.1.111-.151c.05-.071.09-.152.14-.212.031-.04.051-.081.081-.121a.219.219,0,0,1,.03-.05c.04-.071.091-.141.141-.212a.912.912,0,0,1,.081-.121c.08-.121.151-.252.221-.372s.141-.252.212-.373a.754.754,0,0,1,.07-.121c.05-.081.091-.171.141-.252a.486.486,0,0,1,.081-.141,1.781,1.781,0,0,0,.11-.242.573.573,0,0,1,.081-.151c.04-.07.07-.151.111-.231.02-.051.05-.1.07-.152.04-.08.07-.161.111-.241a.89.89,0,0,0,.06-.141c.04-.091.071-.182.111-.272.02-.041.03-.081.05-.121.051-.131.1-.262.141-.393.01-.01.01-.02.02-.03.041-.121.081-.232.121-.363.02-.04.03-.091.05-.131.031-.081.051-.181.081-.262.02-.05.03-.111.05-.151l.061-.212c.01-.01.01-.03.02-.05s.02-.06.03-.1.01-.06.02-.09c.02-.081.04-.151.061-.232,0-.01.01-.02.01-.03.01-.03.01-.071.02-.1l.151-.635v-.01a11.592,11.592,0,0,0-9.181-5.419"/>
            </g>
            <g class="cls-14">
              <path class="cls-19" d="M50.515,175.494a8.69,8.69,0,0,1,.929.34c.05.02.11.05.17.08a.035.035,0,0,1,.02.01,8.29,8.29,0,0,1,2.139,1.44c.01.01.02.01.02.02.04.04.08.07.12.11a.5.5,0,0,0,.069.07l.07.07.11.11c.01.01.02.01.02.02a8.259,8.259,0,0,1,1.519,2.3c.01.02.02.03.02.05.03.08.06.15.09.23.02.04.03.08.05.12a.76.76,0,0,0,.04.11c.11.32.21.64.29.96a11.24,11.24,0,0,1,9.074,5.45,17.363,17.363,0,0,0,.36-3.46v-.6c0-.08-.01-.15-.01-.23,0-.06-.01-.12-.01-.18s-.01-.14-.02-.21-.01-.12-.02-.18a1.548,1.548,0,0,1-.01-.21c-.01-.06-.01-.12-.02-.18a1.646,1.646,0,0,1-.02-.21c-.01-.06-.01-.12-.02-.18s-.02-.15-.03-.22a.881.881,0,0,1-.02-.17c-.02-.12-.04-.25-.06-.37-.01-.05-.02-.11-.03-.17-.02-.08-.02-.15-.04-.22s-.02-.13-.04-.19-.02-.13-.04-.2a1.286,1.286,0,0,1-.04-.19c-.02-.06-.03-.13-.05-.19s-.03-.13-.05-.2a1.209,1.209,0,0,0-.05-.18c-.02-.07-.03-.13-.05-.2a1.209,1.209,0,0,0-.05-.18c-.01-.07-.04-.13-.05-.2s-.04-.12-.05-.18-.04-.13-.06-.2-.05-.14-.07-.21c-.04-.11-.08-.23-.11-.33-.02-.05-.039-.11-.059-.17a1.192,1.192,0,0,0-.08-.2.851.851,0,0,1-.06-.17,1.192,1.192,0,0,0-.08-.2c-.02-.05-.05-.11-.07-.16-.03-.07-.05-.14-.08-.2s-.05-.11-.07-.16c-.02-.03-.03-.07-.05-.1-.02-.05-.05-.11-.08-.17s-.05-.11-.08-.17a2.4,2.4,0,0,1-.11-.23c-.02-.04-.05-.09-.07-.14-.01-.01-.02-.04-.03-.05-.04-.08-.08-.15-.11-.22a.826.826,0,0,0-.07-.13c-.07-.13-.14-.25-.21-.38s-.14-.24-.22-.36a.441.441,0,0,0-.079-.11l-.15-.24c-.03-.05-.06-.09-.09-.14-.05-.07-.1-.14-.15-.22-.03-.04-.06-.09-.1-.14-.05-.07-.1-.14-.14-.21-.03-.05-.07-.09-.1-.14l-.15-.21c-.03-.04-.06-.08-.1-.13-.06-.08-.11-.15-.17-.22-.03-.04-.05-.07-.08-.11-.08-.11-.18-.21-.259-.32a.077.077,0,0,1-.02-.03c-.08-.1-.16-.19-.24-.28-.03-.04-.06-.07-.09-.11-.06-.07-.12-.14-.18-.2l-.11-.11c-.05-.05-.1-.11-.15-.15l-.03-.03-.07-.07-.07-.07-.17-.17-.02-.02c-.02-.02-.05-.04-.08-.07-.15-.15-.309-.3-.479-.44h-.01a11.2,11.2,0,0,0-9.274,5.1"/>
            </g>
            <g class="cls-14">
              <path class="cls-20" d="M42.194,176.8a6.689,6.689,0,0,1,.76-.63c.05-.04.1-.07.149-.11.01-.01.02-.01.02-.02a8.324,8.324,0,0,1,2.319-1.13c.01,0,.02-.01.03-.01.05-.01.11-.03.16-.04.03-.01.06-.01.09-.02a.292.292,0,0,1,.09-.02c.05-.02.11-.02.16-.04.01,0,.02-.01.03-.01a8.233,8.233,0,0,1,2.748-.16.075.075,0,0,1,.05.01l.24.03c.04.01.079.01.119.02a.41.41,0,0,0,.11.01c.33.06.65.14.97.23a11.254,11.254,0,0,1,9.264-5.13,17.849,17.849,0,0,0-2.818-2.05.031.031,0,0,0-.02-.01c-.09-.05-.18-.11-.27-.15a.251.251,0,0,1-.07-.04.01.01,0,0,1-.01-.01c-.02-.02-.05-.02-.07-.04s-.05-.03-.08-.04c-.07-.04-.14-.07-.2-.11s-.11-.05-.16-.08-.13-.07-.19-.1-.11-.05-.17-.08-.13-.06-.19-.09-.109-.05-.169-.08a1.667,1.667,0,0,0-.2-.08c-.05-.02-.11-.04-.17-.07a1.8,1.8,0,0,0-.21-.08c-.05-.02-.11-.05-.16-.07-.11-.05-.24-.09-.35-.14-.05-.02-.11-.04-.16-.06a1.723,1.723,0,0,1-.209-.08l-.18-.06c-.06-.02-.13-.04-.19-.06s-.13-.04-.19-.06-.12-.04-.19-.06a1.332,1.332,0,0,0-.19-.05c-.06-.01-.12-.04-.18-.05a1.462,1.462,0,0,0-.2-.05,1.165,1.165,0,0,1-.179-.05c-.07-.01-.13-.03-.2-.04s-.12-.03-.18-.04-.13-.03-.2-.05a1.419,1.419,0,0,1-.22-.05c-.11-.02-.24-.04-.35-.07l-.17-.03a1.51,1.51,0,0,1-.209-.04,1.127,1.127,0,0,1-.18-.03l-.21-.03c-.06-.01-.11-.01-.17-.02s-.14-.01-.21-.02a1.028,1.028,0,0,0-.18-.01c-.04,0-.08-.01-.11-.01a1.087,1.087,0,0,0-.18-.01,1.148,1.148,0,0,0-.19-.01c-.079-.01-.169-.01-.259-.02-.05,0-.1-.01-.15-.01H48.7c-.08,0-.17-.01-.25-.01-.05,0-.1-.01-.14-.01-.14,0-.29-.01-.43-.01s-.279,0-.419.01a.66.66,0,0,0-.14.01c-.1,0-.19.01-.29.01-.05,0-.11.01-.16.01-.09.01-.17.01-.26.02a.97.97,0,0,1-.17.01c-.08.01-.17.01-.25.02a.909.909,0,0,1-.169.01l-.24.03c-.05.01-.1.01-.14.02-.1.02-.21.03-.31.04a.615.615,0,0,1-.13.01c-.14.02-.27.05-.41.07-.01,0-.02.01-.04.01-.12.02-.239.04-.369.07-.04.01-.09.02-.14.03-.09.01-.17.04-.27.06a.936.936,0,0,0-.16.04,1.6,1.6,0,0,0-.21.05c-.02,0-.03.01-.05.01s-.07.01-.1.02-.06.01-.09.02l-.23.06c-.01,0-.02.01-.03.01l-.1.03c-.21.06-.41.12-.62.19l-.01.01a11.223,11.223,0,0,0-.18,10.56"/>
            </g>
          </g>
        </g>
      </g>
    </g>
    <g id="Kubernetes">
      <circle class="cls-13" cx="429.133" cy="183.394" r="32"/>
    </g>
    <g id="Orion">
      <g id="Evidence">
        <circle class="cls-13" cx="175.5" cy="35.82" r="32"/>
        <g>
          <path d="M166,18.32h18a6.958,6.958,0,0,1,7,6.914V43.32a6.956,6.956,0,0,1-6.914,7H166a6.957,6.957,0,0,1-7-6.913V25.32a6.957,6.957,0,0,1,6.914-7Z"/>
          <g>
            <g>
              <path class="cls-21" d="M171,37.32v-6h1.781a2.2,2.2,0,0,1,.976.162,1.152,1.152,0,0,1,.489.575,2.327,2.327,0,0,1,.182.943,2.063,2.063,0,0,1-.27,1.118,1.226,1.226,0,0,1-.829.554,2.341,2.341,0,0,1,.454.5,7.787,7.787,0,0,1,.482.973l.511,1.171h-.669l-.584-1.418a8.2,8.2,0,0,0-.426-.842.663.663,0,0,0-.243-.239c-.129-.051-.268-.073-.406.5H172v2Zm1-4h.879c.244.545.489.521.726.458a.488.488,0,0,0,.227-.243.989.989,0,0,0,.082-.429.883.883,0,0,0-.109-.467.472.472,0,0,0-.3-.225,2.426,2.426,0,0,1-.59-.094H172Z"/>
              <path class="cls-21" d="M176,37.32v-6h1v6Z"/>
            </g>
            <path class="cls-1" d="M184,37.32v-6h1.086l2.914,4.6v-4.6h1v6h-.94L185,32.648V37.32Z"/>
          </g>
          <circle class="cls-22" cx="184.245" cy="27.561" r="2.9"/>
          <circle class="cls-22" cx="180.145" cy="34.561" r="2.9"/>
          <circle class="cls-22" cx="175.845" cy="41.561" r="2.9"/>
          <path class="cls-1" d="M161.716,33.275a4.665,4.665,0,0,1,1.148-3.349,3.9,3.9,0,0,1,2.965-1.21,4.107,4.107,0,0,1,2.145.569,3.719,3.719,0,0,1,1.456,1.584,5.161,5.161,0,0,1,.5,2.306,5.08,5.08,0,0,1-.528,2.338,3.611,3.611,0,0,1-1.494,1.562,4.274,4.274,0,0,1-2.086.53,4.064,4.064,0,0,1-2.168-.586,3.767,3.767,0,0,1-1.447-1.6A4.842,4.842,0,0,1,161.716,33.275Zm1.172.017a3.437,3.437,0,0,0,.835,2.447,2.914,2.914,0,0,0,4.12.078l.087-.087a3.658,3.658,0,0,0,.829-2.561,4.394,4.394,0,0,0-.355-1.831,2.725,2.725,0,0,0-1.037-1.213,2.814,2.814,0,0,0-1.532-.43,2.9,2.9,0,0,0-2.077.829A3.7,3.7,0,0,0,162.888,33.292Z"/>
        </g>
      </g>
    </g>
    <g id="Inventory">
      <circle class="cls-13" cx="173.763" cy="183.394" r="32"/>
      <g id="Inv_icon-2" data-name="Inv_icon">
        <g class="cls-23">
          <g>
            <g class="cls-23">
              <path class="cls-15" d="M165.955,185.321a8.032,8.032,0,0,1-.172-.992,1.138,1.138,0,0,1-.02-.183v-.02a8.384,8.384,0,0,1,.182-2.6c0-.01.01-.01.01-.03.02-.051.02-.111.04-.162a.273.273,0,0,0,.021-.091c.01-.031.01-.061.02-.091.02-.051.03-.112.051-.162,0-.011.01-.011.01-.031a8.009,8.009,0,0,1,1.255-2.492.138.138,0,0,1,.03-.04c.051-.071.1-.132.152-.2a.717.717,0,0,1,.081-.1c.02-.031.051-.051.071-.081a7.908,7.908,0,0,1,.688-.74,11.362,11.362,0,0,1,.193-10.708,17.905,17.905,0,0,0-3.22,1.429.031.031,0,0,1-.02.01c-.091.05-.182.111-.273.162-.02.01-.051.03-.071.04s-.01.011-.01.011c-.02.01-.051.02-.061.04a.349.349,0,0,0-.081.051c-.061.04-.131.081-.192.121s-.1.071-.152.1a1.64,1.64,0,0,0-.182.121c-.051.041-.1.071-.152.112s-.111.081-.172.121-.1.071-.152.112a1.959,1.959,0,0,0-.172.131c-.051.041-.1.071-.152.112a1.074,1.074,0,0,0-.172.142c-.041.04-.091.07-.142.111l-.3.243c-.05.041-.091.081-.131.112s-.112.1-.172.151a.892.892,0,0,0-.142.132,1.974,1.974,0,0,0-.152.142c-.04.051-.1.091-.142.142s-.1.091-.151.142-.1.091-.152.141a1.729,1.729,0,0,1-.142.142,1.728,1.728,0,0,1-.142.142c-.05.041-.091.091-.142.142a1.894,1.894,0,0,1-.141.142,1.673,1.673,0,0,0-.132.142c-.05.05-.091.1-.142.152s-.1.121-.151.172c-.081.091-.162.182-.233.273a.779.779,0,0,0-.112.142c-.05.051-.091.112-.141.172a1.389,1.389,0,0,0-.112.142,1.165,1.165,0,0,0-.131.172c-.041.041-.071.092-.112.142s-.081.112-.131.183a1.737,1.737,0,0,0-.112.141.481.481,0,0,0-.06.092c-.041.05-.071.1-.112.151s-.071.1-.111.152a1.639,1.639,0,0,1-.152.213c-.03.041-.051.081-.081.122-.01.01-.02.04-.03.05-.041.071-.091.142-.142.213-.02.041-.051.081-.071.122-.081.121-.152.253-.223.375s-.141.253-.2.374c-.02.041-.051.081-.071.122-.051.081-.091.172-.142.253a.934.934,0,0,1-.081.142,1.8,1.8,0,0,0-.111.243.563.563,0,0,1-.081.152c-.041.081-.071.152-.111.233-.021.051-.051.1-.071.152-.041.081-.071.162-.112.233a1.484,1.484,0,0,0-.06.142c-.041.091-.071.182-.112.273-.01.041-.03.081-.04.122l-.152.395a.037.037,0,0,0-.01.03c-.051.122-.081.244-.122.365-.02.051-.03.091-.05.132-.031.081-.051.172-.081.263-.021.051-.031.112-.051.152l-.061.213a.06.06,0,0,0-.01.04c-.01.031-.02.061-.03.1s-.01.061-.02.091c-.021.081-.041.152-.061.233,0,.01-.01.02-.01.03a.371.371,0,0,0-.021.1l-.151.638v.01a11.469,11.469,0,0,0,9.192,5.47"/>
            </g>
            <g class="cls-23">
              <path class="cls-16" d="M171.873,191.264a8.706,8.706,0,0,1-.93-.34c-.05-.02-.11-.05-.17-.08a.035.035,0,0,1-.02-.01,8.04,8.04,0,0,1-2.138-1.44l-.02-.02c-.04-.04-.08-.07-.12-.11a.462.462,0,0,0-.07-.07l-.07-.07-.11-.11c-.01-.01-.02-.01-.02-.02a8.281,8.281,0,0,1-1.519-2.3.076.076,0,0,1-.02-.04c-.03-.08-.06-.15-.09-.23-.02-.04-.03-.07-.05-.11a.76.76,0,0,0-.04-.11c-.11-.32-.21-.64-.29-.96a11.241,11.241,0,0,1-9.074-5.45,16.655,16.655,0,0,0-.359,3.46v.6c0,.07.01.15.01.23,0,.06.01.12.01.18s.01.15.02.21a1.087,1.087,0,0,1,.01.18c.01.07.01.14.019.21a1.087,1.087,0,0,1,.01.18,1.646,1.646,0,0,1,.02.21c.01.06.01.12.02.18s.02.15.03.22c.01.05.01.11.02.17.02.12.04.25.06.37.01.05.02.11.03.17.02.08.02.14.04.22a1.286,1.286,0,0,0,.04.19c.02.07.02.13.04.2s.03.13.05.19.03.13.05.19.03.13.05.2.03.12.05.18a1.462,1.462,0,0,0,.05.2,1.209,1.209,0,0,0,.05.18c.01.07.04.13.05.2a1.209,1.209,0,0,1,.05.18c.02.07.04.13.06.2a1.293,1.293,0,0,0,.07.21c.04.12.08.23.11.34.02.05.04.11.06.17a1.192,1.192,0,0,0,.08.2.851.851,0,0,1,.06.17,1.192,1.192,0,0,0,.08.2c.02.05.05.11.07.16.03.07.05.14.08.2s.05.11.07.16c.01.03.03.07.04.1.02.05.049.11.079.17s.05.11.08.17a1.627,1.627,0,0,1,.11.23c.02.04.05.09.07.14.01.01.01.04.03.05a2.256,2.256,0,0,1,.11.22.826.826,0,0,0,.07.13c.07.13.14.25.21.38s.14.24.22.36a.444.444,0,0,0,.08.11l.15.24c.03.04.06.09.09.14.05.08.1.14.15.22.03.04.06.09.1.14.049.07.1.14.139.21a1.7,1.7,0,0,1,.1.14l.15.21c.03.04.06.08.1.13.06.08.11.15.17.22.03.04.05.07.08.11.08.11.18.21.26.32a.077.077,0,0,1,.02.03c.08.1.16.19.24.28.03.04.06.07.09.11.06.07.12.14.179.2l.11.11c.05.05.1.11.15.15l.03.03a497582161920.882,497582161920.882,0,0,0,.14.14l.17.17c.01.01.02.01.02.02.02.02.05.04.08.07.15.15.31.29.48.44h.01a11.265,11.265,0,0,0,9.284-5.13"/>
            </g>
            <g class="cls-23">
              <path class="cls-17" d="M179.694,188.964a7.685,7.685,0,0,1-.759.63c-.05.04-.1.07-.15.11a.031.031,0,0,1-.02.01,8.324,8.324,0,0,1-2.319,1.13c-.01,0-.02.01-.03.01-.05.01-.109.03-.159.04-.03.01-.06.01-.09.02s-.06.01-.09.02a.936.936,0,0,0-.16.04c-.01,0-.02.01-.03.01a8.236,8.236,0,0,1-2.748.16c-.01,0-.04,0-.05-.01l-.24-.03c-.04-.01-.08-.01-.12-.02a.425.425,0,0,0-.11-.02c-.33-.06-.65-.14-.969-.23a11.257,11.257,0,0,1-9.264,5.13,17.2,17.2,0,0,0,2.818,2.05l.02.02c.09.05.18.11.27.15a.251.251,0,0,1,.07.04c.01,0,.01.01.02.01.02.02.04.02.07.04s.05.03.08.04c.069.04.139.07.2.11a1.29,1.29,0,0,1,.16.09c.06.03.13.07.19.1s.11.05.17.08.13.06.19.09a1.3,1.3,0,0,1,.17.08,1.667,1.667,0,0,0,.2.08c.05.02.11.05.17.08a1.723,1.723,0,0,0,.209.08,1.111,1.111,0,0,1,.16.07c.11.04.24.09.35.14.05.02.11.04.16.06a1.8,1.8,0,0,1,.21.08l.18.06c.06.02.13.04.19.06l.189.06c.06.02.12.04.19.06a1.332,1.332,0,0,0,.19.05c.06.01.12.04.18.05s.13.04.2.05a1.163,1.163,0,0,0,.18.04c.07.02.13.03.2.05s.12.03.18.04.129.03.2.05a1.742,1.742,0,0,1,.22.05c.11.02.24.05.35.07.06.01.11.02.18.03a1.552,1.552,0,0,1,.21.04,1.01,1.01,0,0,1,.17.03c.07.01.15.02.21.03s.109.01.169.02a1.646,1.646,0,0,0,.21.02.985.985,0,0,0,.17.02c.04,0,.08.01.11.01a1.087,1.087,0,0,0,.18.01c.06.01.12.01.19.02a2.175,2.175,0,0,0,.26.01c.05,0,.1.01.15.01h.06c.08,0,.169.01.249.01.04,0,.1.01.14.01.15,0,.29.01.43.01s.28,0,.42-.01a.66.66,0,0,0,.14-.01c.1,0,.19-.01.289-.01.05,0,.11-.01.16-.01a2.26,2.26,0,0,1,.26-.01c.05-.01.11-.01.17-.02.08-.01.17-.01.25-.02.05-.01.11-.01.17-.02l.24-.03c.05-.01.1-.01.14-.02.1-.02.209-.03.309-.04a.615.615,0,0,1,.13-.01c.14-.02.27-.04.41-.07.02,0,.02-.01.04-.01.12-.02.24-.05.37-.07l.14-.03a2.539,2.539,0,0,0,.269-.06.936.936,0,0,0,.16-.04c.07-.02.14-.03.21-.05.01,0,.03-.01.04-.01.03-.01.07-.01.1-.02l.09-.02.23-.06c.01,0,.02-.01.03-.01.03-.01.07-.02.1-.03.2-.06.41-.12.619-.19l.01-.01a11.187,11.187,0,0,0,.19-10.57"/>
            </g>
            <g class="cls-23">
              <path class="cls-18" d="M181.581,181.323a7.919,7.919,0,0,1,.171.987,1,1,0,0,1,.011.181v.02a8.052,8.052,0,0,1-.182,2.589c0,.01-.01.02-.01.03a.958.958,0,0,1-.04.162.292.292,0,0,0-.02.09c-.01.031-.01.061-.02.091a1.056,1.056,0,0,0-.041.161c0,.01-.01.01-.01.03a8.067,8.067,0,0,1-1.248,2.479c-.01.01-.02.03-.03.04-.05.07-.1.131-.151.2a.608.608,0,0,1-.081.1c-.02.03-.05.05-.07.081a7.944,7.944,0,0,1-.685.735,11.327,11.327,0,0,1-.191,10.648,18.568,18.568,0,0,0,3.2-1.42.031.031,0,0,1,.02-.01c.091-.051.182-.111.272-.162a.165.165,0,0,1,.071-.04.01.01,0,0,0,.01-.01c.02-.02.05-.02.06-.04a.938.938,0,0,0,.091-.051c.06-.04.131-.08.191-.121s.1-.07.151-.1l.181-.121c.051-.041.1-.071.151-.111s.111-.081.171-.121.1-.07.151-.111a1.781,1.781,0,0,0,.172-.131c.04-.04.1-.07.141-.11.06-.051.12-.091.181-.142a1.575,1.575,0,0,1,.141-.11l.3-.242a1.736,1.736,0,0,0,.131-.121c.05-.04.12-.1.171-.141s.1-.081.141-.131.1-.091.151-.141.1-.091.141-.141a1.9,1.9,0,0,1,.151-.141c.04-.05.1-.091.141-.141l.141-.141.151-.151a1.688,1.688,0,0,1,.14-.141.94.94,0,0,1,.141-.141c.041-.041.081-.091.131-.141s.091-.1.141-.151.1-.111.151-.172c.081-.09.161-.181.232-.272a.776.776,0,0,0,.111-.141,2.011,2.011,0,0,1,.14-.161,1.243,1.243,0,0,0,.111-.141,1.772,1.772,0,0,0,.131-.171,1.735,1.735,0,0,0,.111-.141c.04-.061.08-.111.131-.182.04-.05.07-.09.11-.141a.434.434,0,0,0,.061-.09c.04-.051.07-.1.111-.151s.07-.1.11-.151c.051-.071.091-.152.141-.212.03-.04.051-.081.081-.121a.219.219,0,0,1,.03-.05c.04-.071.091-.141.141-.212a.9.9,0,0,1,.08-.121c.081-.121.151-.252.222-.372s.141-.252.211-.373a.762.762,0,0,1,.071-.121c.05-.081.09-.171.141-.252a.506.506,0,0,1,.08-.141,1.67,1.67,0,0,0,.111-.242.545.545,0,0,1,.081-.151c.04-.07.07-.151.11-.231.02-.051.051-.1.071-.152.04-.08.07-.161.111-.241a.89.89,0,0,0,.06-.141c.04-.091.07-.182.111-.272.02-.041.03-.081.05-.121.05-.131.1-.262.141-.393.01-.01.01-.02.02-.03.04-.121.081-.232.121-.363.02-.04.03-.091.05-.131.03-.081.051-.181.081-.262.02-.05.03-.111.05-.151l.06-.212c.011-.01.011-.03.021-.05s.02-.06.03-.1.01-.06.02-.09c.02-.081.04-.151.06-.232,0-.01.01-.02.01-.03.01-.03.01-.071.021-.1l.151-.635v-.01a11.592,11.592,0,0,0-9.182-5.419"/>
            </g>
            <g class="cls-23">
              <path class="cls-19" d="M176.653,175.494a8.77,8.77,0,0,1,.929.34c.05.02.11.05.17.08a.035.035,0,0,1,.02.01,8.285,8.285,0,0,1,2.138,1.44c.01.01.02.01.02.02.04.04.08.07.12.11a.462.462,0,0,0,.07.07l.07.07.11.11c.01.01.02.01.02.02a8.281,8.281,0,0,1,1.519,2.3c.01.02.02.03.02.05.03.08.06.15.09.23.02.04.03.08.05.12a.76.76,0,0,0,.04.11c.11.32.21.64.29.96a11.241,11.241,0,0,1,9.074,5.45,17.363,17.363,0,0,0,.36-3.46v-.6c0-.08-.01-.15-.01-.23,0-.06-.01-.12-.01-.18s-.01-.14-.02-.21-.01-.12-.02-.18a1.548,1.548,0,0,1-.01-.21c-.01-.06-.01-.12-.02-.18a1.646,1.646,0,0,1-.02-.21c-.01-.06-.01-.12-.02-.18s-.02-.15-.03-.22a.881.881,0,0,1-.02-.17c-.02-.12-.04-.25-.06-.37-.01-.05-.02-.11-.03-.17-.02-.08-.02-.15-.04-.22s-.02-.13-.04-.19-.02-.13-.04-.2a1.286,1.286,0,0,1-.04-.19c-.02-.06-.03-.13-.05-.19s-.03-.13-.05-.2a1.209,1.209,0,0,0-.05-.18c-.02-.07-.03-.13-.05-.2a1.209,1.209,0,0,0-.05-.18c-.01-.07-.04-.13-.05-.2s-.04-.12-.05-.18-.04-.13-.06-.2-.05-.14-.07-.21c-.04-.11-.08-.23-.11-.33-.02-.05-.04-.11-.06-.17a1.192,1.192,0,0,0-.08-.2.851.851,0,0,1-.06-.17,1.192,1.192,0,0,0-.08-.2c-.02-.05-.05-.11-.07-.16-.03-.07-.05-.14-.08-.2s-.049-.11-.069-.16c-.02-.03-.03-.07-.05-.1-.02-.05-.05-.11-.08-.17s-.05-.11-.08-.17a2.4,2.4,0,0,1-.11-.23c-.02-.04-.05-.09-.07-.14-.01-.01-.02-.04-.03-.05-.04-.08-.08-.15-.11-.22a.826.826,0,0,0-.07-.13c-.07-.13-.14-.25-.21-.38s-.14-.24-.22-.36a.444.444,0,0,0-.08-.11l-.15-.24c-.03-.05-.06-.09-.09-.14-.05-.07-.1-.14-.149-.22-.03-.04-.06-.09-.1-.14-.05-.07-.1-.14-.14-.21-.03-.05-.07-.09-.1-.14l-.15-.21c-.03-.04-.06-.08-.1-.13-.06-.08-.11-.15-.17-.22-.03-.04-.05-.07-.08-.11-.08-.11-.18-.21-.26-.32a.077.077,0,0,1-.02-.03c-.08-.1-.16-.19-.24-.28-.03-.04-.06-.07-.09-.11-.059-.07-.119-.14-.179-.2l-.11-.11c-.05-.05-.1-.11-.15-.15l-.03-.03-.07-.07-.07-.07-.17-.17-.02-.02c-.02-.02-.05-.04-.08-.07-.15-.15-.31-.3-.48-.44h-.01a11.2,11.2,0,0,0-9.273,5.1"/>
            </g>
            <g class="cls-23">
              <path class="cls-20" d="M168.332,176.8a6.678,6.678,0,0,1,.759-.63c.05-.04.1-.07.15-.11.01-.01.02-.01.02-.02a8.324,8.324,0,0,1,2.319-1.13c.01,0,.02-.01.03-.01.05-.01.11-.03.16-.04.03-.01.059-.01.089-.02a.292.292,0,0,1,.09-.02c.05-.02.11-.02.16-.04.01,0,.02-.01.03-.01a8.236,8.236,0,0,1,2.748-.16.075.075,0,0,1,.05.01l.24.03c.04.01.08.01.12.02a.41.41,0,0,0,.11.01c.33.06.65.14.969.23a11.257,11.257,0,0,1,9.264-5.13,17.757,17.757,0,0,0-2.818-2.05.031.031,0,0,0-.02-.01c-.09-.05-.18-.11-.27-.15a.251.251,0,0,1-.07-.04.01.01,0,0,1-.01-.01c-.019-.02-.049-.02-.069-.04s-.05-.03-.08-.04c-.07-.04-.14-.07-.2-.11s-.11-.05-.16-.08-.13-.07-.19-.1-.11-.05-.17-.08-.13-.06-.19-.09-.11-.05-.17-.08a1.667,1.667,0,0,0-.2-.08c-.05-.02-.109-.04-.169-.07a1.8,1.8,0,0,0-.21-.08c-.05-.02-.11-.05-.16-.07-.11-.05-.24-.09-.35-.14-.05-.02-.11-.04-.16-.06a1.8,1.8,0,0,1-.21-.08l-.18-.06c-.06-.02-.13-.04-.189-.06s-.13-.04-.19-.06-.12-.04-.19-.06a1.332,1.332,0,0,0-.19-.05c-.06-.01-.12-.04-.18-.05a1.462,1.462,0,0,0-.2-.05,1.209,1.209,0,0,1-.18-.05c-.07-.01-.13-.03-.2-.04s-.12-.03-.18-.04-.129-.03-.2-.05a1.419,1.419,0,0,1-.22-.05c-.11-.02-.24-.04-.35-.07l-.17-.03a1.552,1.552,0,0,1-.21-.04,1.127,1.127,0,0,1-.18-.03l-.209-.03c-.06-.01-.11-.01-.17-.02s-.14-.01-.21-.02a1.028,1.028,0,0,0-.18-.01c-.04,0-.08-.01-.11-.01a1.087,1.087,0,0,0-.18-.01,1.148,1.148,0,0,0-.19-.01c-.08-.01-.17-.01-.26-.02-.05,0-.1-.01-.15-.01h-.059c-.08,0-.17-.01-.25-.01-.05,0-.1-.01-.14-.01-.14,0-.29-.01-.43-.01s-.28,0-.42.01a.66.66,0,0,0-.14.01c-.1,0-.189.01-.289.01-.05,0-.11.01-.16.01-.09.01-.17.01-.26.02a.97.97,0,0,1-.17.01c-.08.01-.17.01-.25.02a.915.915,0,0,1-.17.01l-.24.03c-.05.01-.1.01-.139.02-.1.02-.21.03-.31.04a.615.615,0,0,1-.13.01c-.14.02-.27.05-.41.07-.01,0-.02.01-.04.01-.12.02-.24.04-.37.07-.04.01-.09.02-.14.03-.089.01-.169.04-.269.06a.936.936,0,0,0-.16.04,1.6,1.6,0,0,0-.21.05c-.02,0-.03.01-.05.01s-.07.01-.1.02-.06.01-.09.02l-.23.06c-.01,0-.02.01-.03.01-.03.01-.07.02-.1.03-.21.06-.409.12-.619.19l-.01.01a11.223,11.223,0,0,0-.18,10.56"/>
            </g>
          </g>
        </g>
      </g>
    </g>
    <g class="cls-24">
      <text id="headerSVG.issueTracker1" class="cls-25" transform="translate(29.393 234.812)">Issue</text>
      <text id="headerSVG.issueTracker2" class="cls-25" transform="translate(22.782 251.612)">Tracker</text>
    </g>
    <text id="headerSVG.ciPipeline" class="cls-25" transform="translate(264.937 234.812)">CI Pipeline</text>
    <text id="headerSVG.codeEngine1" class="cls-25" transform="translate(410.799 234.812)">Code</text>
    <text id="headerSVG.codeEngine2" class="cls-25" transform="translate(406.753 251.612)">Engine</text>
    <text id="headerSVG.orionWebIde1" class="cls-32" transform="translate(155.212 88.872)">Orion</text>
    <text id="headerSVG.orionWebIde2" class="cls-32" transform="translate(145.93 105.672)">Web IDE</text>
    <text id="headerSVG.appRepo1" class="cls-34" transform="translate(161.962 234.812)">App</text>
    <text id="headerSVG.appRepo2" class="cls-34" transform="translate(158.518 251.612)">Repo</text>
    <g>
      <g class="cls-36">
        <rect id="Color" class="cls-37" x="413.133" y="167.394" width="32" height="32"/>
      </g>
      <path class="cls-38" d="M442.133,185.394h-12a1,1,0,0,1-1-1v-12a1,1,0,0,1,1-1h12a1,1,0,0,1,1,1v12a1,1,0,0,1-1,1m-11-2h10v-10h-10Z"/>
    </g>
  </g>
</svg>
 
